<?xml version="1.0" encoding="UTF-8" standalone="no"?>
<!-- Created with Inkscape (http://www.inkscape.org/) -->

<svg
   xmlns:dc="http://purl.org/dc/elements/1.1/"
   xmlns:cc="http://creativecommons.org/ns#"
   xmlns:rdf="http://www.w3.org/1999/02/22-rdf-syntax-ns#"
   xmlns:svg="http://www.w3.org/2000/svg"
   xmlns="http://www.w3.org/2000/svg"
   xmlns:sodipodi="http://sodipodi.sourceforge.net/DTD/sodipodi-0.dtd"
   xmlns:inkscape="http://www.inkscape.org/namespaces/inkscape"
   width="24.283293mm"
   height="5.2599163mm"
   viewBox="0 0 24.283293 5.2599163"
   version="1.1"
   id="svg8"
   inkscape:version="0.92.1 r15371"
   sodipodi:docname="mrmr_logo.svg">
  <defs
     id="defs2" />
  <sodipodi:namedview
     id="base"
     pagecolor="#ffffff"
     bordercolor="#666666"
     borderopacity="1.0"
     inkscape:pageopacity="0.0"
     inkscape:pageshadow="2"
     inkscape:zoom="18.9875"
     inkscape:cx="39.661046"
     inkscape:cy="7.6750483"
     inkscape:document-units="mm"
     inkscape:current-layer="layer1"
     showgrid="false"
     inkscape:window-width="1920"
     inkscape:window-height="1017"
     inkscape:window-x="-8"
     inkscape:window-y="-8"
     inkscape:window-maximized="1" />
  <metadata
     id="metadata5">
    <rdf:RDF>
      <cc:Work
         rdf:about="">
        <dc:format>image/svg+xml</dc:format>
        <dc:type
           rdf:resource="http://purl.org/dc/dcmitype/StillImage" />
        <dc:title></dc:title>
      </cc:Work>
    </rdf:RDF>
  </metadata>
  <g
     inkscape:label="Layer 1"
     inkscape:groupmode="layer"
     id="layer1"
     transform="translate(-48.400006,-147.93494)">
    <g
       aria-label="mrmr"
       style="font-style:normal;font-variant:normal;font-weight:normal;font-stretch:normal;font-size:10.58333302px;line-height:1.25;font-family:Klavika;-inkscape-font-specification:Klavika;letter-spacing:0px;word-spacing:0px;fill:#000000;fill-opacity:1;stroke:none;stroke-width:0.26458332"
       id="text4487">
      <path
         style="stroke-width:0.26458332"
         d="m 51.744141,147.93555 c -0.592666,0 -1.417735,0.18918 -2.052735,0.49609 l -0.158203,-0.39062 h -1.132812 v 5.15429 h 1.523437 v -3.4082 c 0.328083,-0.17992 0.836161,-0.37109 1.111328,-0.37109 0.264583,0 0.371094,0.13826 0.371094,0.37109 v 3.4082 h 1.523438 v -3.4082 c 0.328082,-0.17992 0.836161,-0.37109 1.111328,-0.37109 0.264583,0 0.371093,0.13826 0.371093,0.37109 v 3.4082 h 1.523438 v -3.60937 c 0,-0.99484 -0.30713,-1.65039 -1.185547,-1.65039 -0.709083,0 -1.48237,0.21034 -2.064453,0.49609 -0.179917,-0.3175 -0.486322,-0.49609 -0.941406,-0.49609 z"
         id="path4517" />
      <path
         style="stroke-width:0.26458332"
         d="m 60.029297,147.93555 c -0.41275,0.0847 -1.069219,0.39184 -1.386719,0.60351 l -0.105469,-0.49804 h -1.269531 v 5.15429 h 1.523438 v -3.14453 c 0.328083,-0.23283 0.910151,-0.49586 1.365234,-0.67578 z"
         id="path4515" />
      <path
         style="stroke-width:0.26458332"
         d="m 64.271484,147.93555 c -0.592667,0 -1.419687,0.18918 -2.054687,0.49609 l -0.158203,-0.39062 h -1.132813 v 5.15429 h 1.525391 v -3.4082 c 0.328084,-0.17992 0.836162,-0.37109 1.111328,-0.37109 0.264584,0 0.369141,0.13826 0.369141,0.37109 v 3.4082 h 1.523437 v -3.4082 c 0.328083,-0.17992 0.836161,-0.37109 1.111328,-0.37109 0.264583,0 0.371094,0.13826 0.371094,0.37109 v 3.4082 h 1.523438 v -3.60937 c 0,-0.99484 -0.305177,-1.65039 -1.183594,-1.65039 -0.709083,0 -1.482369,0.21034 -2.064453,0.49609 -0.179916,-0.3175 -0.486324,-0.49609 -0.941407,-0.49609 z"
         id="path4513" />
      <path
         style="stroke-width:0.26458332"
         d="m 72.556641,147.93555 c -0.41275,0.0847 -1.069219,0.39184 -1.386719,0.60351 l -0.105469,-0.49804 h -1.269531 v 5.15429 h 1.523437 v -3.14453 c 0.328083,-0.23283 0.910152,-0.49586 1.365235,-0.67578 z"
         id="path4503" />
    </g>
    <flowRoot
       xml:space="preserve"
       id="flowRoot4489"
       style="font-style:normal;font-variant:normal;font-weight:normal;font-stretch:normal;font-size:40px;line-height:1.25;font-family:Klavika;-inkscape-font-specification:Klavika;letter-spacing:0px;word-spacing:0px;fill:#000000;fill-opacity:1;stroke:none"
       transform="scale(0.26458333)"><flowRegion
         id="flowRegion4491"><rect
           id="rect4493"
           width="30.546412"
           height="158.20935"
           x="113.96972"
           y="356.12073" /></flowRegion><flowPara
         id="flowPara4495"></flowPara></flowRoot>  </g>
</svg>
