<?xml version="1.0" encoding="UTF-8" standalone="no"?>
<!-- Generator: Adobe Illustrator 19.0.0, SVG Export Plug-In . SVG Version: 6.00 Build 0)  -->

<svg
   xmlns:dc="http://purl.org/dc/elements/1.1/"
   xmlns:cc="http://creativecommons.org/ns#"
   xmlns:rdf="http://www.w3.org/1999/02/22-rdf-syntax-ns#"
   xmlns:svg="http://www.w3.org/2000/svg"
   xmlns="http://www.w3.org/2000/svg"
   xmlns:sodipodi="http://sodipodi.sourceforge.net/DTD/sodipodi-0.dtd"
   xmlns:inkscape="http://www.inkscape.org/namespaces/inkscape"
   version="1.1"
   id="Layer_1"
   x="0px"
   y="0px"
   viewBox="0 0 512.12702 511.99851"
   xml:space="preserve"
   sodipodi:docname="pen.svg"
   width="512.12701"
   height="511.9985"
   inkscape:version="0.92.1 r15371"><metadata
     id="metadata55"><rdf:RDF><cc:Work
         rdf:about=""><dc:format>image/svg+xml</dc:format><dc:type
           rdf:resource="http://purl.org/dc/dcmitype/StillImage" /><dc:title></dc:title></cc:Work></rdf:RDF></metadata><defs
     id="defs53" /><sodipodi:namedview
     pagecolor="#ffffff"
     bordercolor="#666666"
     borderopacity="1"
     objecttolerance="10"
     gridtolerance="10"
     guidetolerance="10"
     inkscape:pageopacity="0"
     inkscape:pageshadow="2"
     inkscape:window-width="1920"
     inkscape:window-height="1017"
     id="namedview51"
     showgrid="false"
     inkscape:snap-center="false"
     inkscape:zoom="0.55241855"
     inkscape:cx="-375.58096"
     inkscape:cy="403.26064"
     inkscape:window-x="-8"
     inkscape:window-y="-8"
     inkscape:window-maximized="1"
     inkscape:current-layer="layer1" /><g
     inkscape:groupmode="layer"
     id="layer2"
     inkscape:label="circle"
     transform="translate(-43.9365,-44.00075)" /><g
     inkscape:groupmode="layer"
     id="layer1"
     inkscape:label="pen"
     transform="translate(-43.9365,-44.00075)"><g
       id="g4603"><circle
         r="250"
         cy="300"
         cx="300"
         id="path4578"
         style="fill:#666666;fill-opacity:1;stroke-width:2.76150751" /><path
         style="fill:#5599ff"
         d="m 506.69725,212.37125 c -2.222,0 -4.443,-0.85 -6.135,-2.543 l -18.406,-18.415 c -3.393,-3.393 -3.393,-8.878 0,-12.271 3.384,-3.393 8.886,-3.393 12.271,0 l 18.406,18.415 c 3.393,3.393 3.393,8.878 0,12.271 -1.693,1.693 -3.915,2.543 -6.136,2.543"
         id="path2"
         inkscape:connector-curvature="0" /><path
         style="fill:#333333;fill-opacity:1"
         d="m 64.88925,535.04825 v 0 0 c -3.888,-42.774 11.42,-85.053 41.793,-115.426 l 350.928,-350.928 73.633,73.633 -350.929,350.928 c -30.373,30.373 -72.652,45.681 -115.425,41.793"
         id="path4"
         inkscape:connector-curvature="0" /><path
         style="fill:#5599ff"
         d="m 525.10725,136.19125 -61.362,-61.362 22.25,-22.25 c 11.438,-11.438 29.974,-11.438 41.403,0 l 20.185,20.176 c 11.307,11.316 11.307,29.653 0,40.96 z"
         id="path6"
         inkscape:connector-curvature="0" /><polygon
         transform="translate(43.93625,43.93625)"
         style="fill:#333333;fill-opacity:1"
         points="321.632,300.891 493.447,129.076 511.853,147.482 340.038,319.297 "
         id="polygon8" /><polygon
         transform="translate(43.93625,43.93625)"
         id="polygon10"
         points="106.857,331.567 358.449,79.984 395.261,116.805 143.678,368.387 "
         style="fill:#5599ff" /><path
         inkscape:connector-curvature="0"
         id="path12"
         d="m 64.88925,535.04825 c 42.774,3.888 85.053,-11.42 115.426,-41.793 l 1.449,-1.441 c -15.62,-7.454 -30.312,-17.469 -43.242,-30.399 -12.93,-12.93 -22.945,-27.622 -30.399,-43.242 l -1.441,1.449 c -30.373,30.373 -45.681,72.652 -41.793,115.426"
         style="fill:#5599ff" /><path
         style="fill:#333333;fill-opacity:1"
         d="m 52.61625,555.99925 c -2.222,0 -4.443,-0.85 -6.135,-2.543 -3.393,-3.393 -3.393,-8.878 0,-12.271 l 12.271,-12.271 c 3.393,-3.393 8.878,-3.393 12.271,0 3.393,3.393 3.393,8.878 0,12.271 l -12.272,12.271 c -1.692,1.692 -3.913,2.543 -6.135,2.543"
         id="path16"
         inkscape:connector-curvature="0" /></g></g><g
     id="g20"
     transform="translate(-43.9365,43.871259)" /><g
     id="g22"
     transform="translate(-43.9365,43.871259)" /><g
     id="g24"
     transform="translate(-43.9365,43.871259)" /><g
     id="g26"
     transform="translate(-43.9365,43.871259)" /><g
     id="g28"
     transform="translate(-43.9365,43.871259)" /><g
     id="g30"
     transform="translate(-43.9365,43.871259)" /><g
     id="g32"
     transform="translate(-43.9365,43.871259)" /><g
     id="g34"
     transform="translate(-43.9365,43.871259)" /><g
     id="g36"
     transform="translate(-43.9365,43.871259)" /><g
     id="g38"
     transform="translate(-43.9365,43.871259)" /><g
     id="g40"
     transform="translate(-43.9365,43.871259)" /><g
     id="g42"
     transform="translate(-43.9365,43.871259)" /><g
     id="g44"
     transform="translate(-43.9365,43.871259)" /><g
     id="g46"
     transform="translate(-43.9365,43.871259)" /><g
     id="g48"
     transform="translate(-43.9365,43.871259)" /></svg>